<?xml version="1.1" encoding="UTF-8"?>
<svg xmlns="http://www.w3.org/2000/svg"
    xmlns:latexdraw="http://latexdraw.sourceforge.net/namespaces/latexdraw"
    version="1.1" baseProfile="full">
    <g>
        <g latexdraw:type="text" id="id180584654" fill="black" latexdraw:position="bl">
            <text x="165.0" y="485.0">$\mathcal R_1^{\mbox{min}}=1$</text>
        </g>
        <g id="id811620664" latexdraw:type="grid"
            latexdraw:XLabelsSouth="true" latexdraw:YLabelsWest="true"
            latexdraw:gridUnit="0.8225643594473411"
            latexdraw:gridEnd="10.0 10.0" latexdraw:gridStart="0.0 0.0"
            latexdraw:origin="0.0 0.0" transform="translate(120.0 500.0)">
            <g fill="black" latexdraw:type="grid" latexdraw:gridDots="1" latexdraw:Gridwidth="3.911">
                <circle r="1.9555" cx="0.0" cy="-411.28217972367054"/>
                <circle r="1.9555" cx="0.0" cy="-370.1539617513035"/>
                <circle r="1.9555" cx="0.0" cy="-329.02574377893643"/>
                <circle r="1.9555" cx="0.0" cy="-287.8975258065694"/>
                <circle r="1.9555" cx="0.0" cy="-246.76930783420232"/>
                <circle r="1.9555" cx="0.0" cy="-205.64108986183527"/>
                <circle r="1.9555" cx="0.0" cy="-164.51287188946822"/>
                <circle r="1.9555" cx="0.0" cy="-123.38465391710116"/>
                <circle r="1.9555" cx="0.0" cy="-82.25643594473411"/>
                <circle r="1.9555" cx="0.0" cy="-41.128217972367054"/>
                <circle r="1.9555" cx="41.128217972367054" cy="-411.28217972367054"/>
                <circle r="1.9555" cx="41.128217972367054" cy="-370.1539617513035"/>
                <circle r="1.9555" cx="41.128217972367054" cy="-329.02574377893643"/>
                <circle r="1.9555" cx="41.128217972367054" cy="-287.8975258065694"/>
                <circle r="1.9555" cx="41.128217972367054" cy="-246.76930783420232"/>
                <circle r="1.9555" cx="41.128217972367054" cy="-205.64108986183527"/>
                <circle r="1.9555" cx="41.128217972367054" cy="-164.51287188946822"/>
                <circle r="1.9555" cx="41.128217972367054" cy="-123.38465391710116"/>
                <circle r="1.9555" cx="41.128217972367054" cy="-82.25643594473411"/>
                <circle r="1.9555" cx="41.128217972367054" cy="-41.128217972367054"/>
                <circle r="1.9555" cx="82.25643594473411" cy="-411.28217972367054"/>
                <circle r="1.9555" cx="82.25643594473411" cy="-370.1539617513035"/>
                <circle r="1.9555" cx="82.25643594473411" cy="-329.02574377893643"/>
                <circle r="1.9555" cx="82.25643594473411" cy="-287.8975258065694"/>
                <circle r="1.9555" cx="82.25643594473411" cy="-246.76930783420232"/>
                <circle r="1.9555" cx="82.25643594473411" cy="-205.64108986183527"/>
                <circle r="1.9555" cx="82.25643594473411" cy="-164.51287188946822"/>
                <circle r="1.9555" cx="82.25643594473411" cy="-123.38465391710116"/>
                <circle r="1.9555" cx="82.25643594473411" cy="-82.25643594473411"/>
                <circle r="1.9555" cx="82.25643594473411" cy="-41.128217972367054"/>
                <circle r="1.9555" cx="123.38465391710116" cy="-411.28217972367054"/>
                <circle r="1.9555" cx="123.38465391710116" cy="-370.1539617513035"/>
                <circle r="1.9555" cx="123.38465391710116" cy="-329.02574377893643"/>
                <circle r="1.9555" cx="123.38465391710116" cy="-287.8975258065694"/>
                <circle r="1.9555" cx="123.38465391710116" cy="-246.76930783420232"/>
                <circle r="1.9555" cx="123.38465391710116" cy="-205.64108986183527"/>
                <circle r="1.9555" cx="123.38465391710116" cy="-164.51287188946822"/>
                <circle r="1.9555" cx="123.38465391710116" cy="-123.38465391710116"/>
                <circle r="1.9555" cx="123.38465391710116" cy="-82.25643594473411"/>
                <circle r="1.9555" cx="123.38465391710116" cy="-41.128217972367054"/>
                <circle r="1.9555" cx="164.51287188946822" cy="-411.28217972367054"/>
                <circle r="1.9555" cx="164.51287188946822" cy="-370.1539617513035"/>
                <circle r="1.9555" cx="164.51287188946822" cy="-329.02574377893643"/>
                <circle r="1.9555" cx="164.51287188946822" cy="-287.8975258065694"/>
                <circle r="1.9555" cx="164.51287188946822" cy="-246.76930783420232"/>
                <circle r="1.9555" cx="164.51287188946822" cy="-205.64108986183527"/>
                <circle r="1.9555" cx="164.51287188946822" cy="-164.51287188946822"/>
                <circle r="1.9555" cx="164.51287188946822" cy="-123.38465391710116"/>
                <circle r="1.9555" cx="164.51287188946822" cy="-82.25643594473411"/>
                <circle r="1.9555" cx="164.51287188946822" cy="-41.128217972367054"/>
                <circle r="1.9555" cx="205.64108986183527" cy="-411.28217972367054"/>
                <circle r="1.9555" cx="205.64108986183527" cy="-370.1539617513035"/>
                <circle r="1.9555" cx="205.64108986183527" cy="-329.02574377893643"/>
                <circle r="1.9555" cx="205.64108986183527" cy="-287.8975258065694"/>
                <circle r="1.9555" cx="205.64108986183527" cy="-246.76930783420232"/>
                <circle r="1.9555" cx="205.64108986183527" cy="-205.64108986183527"/>
                <circle r="1.9555" cx="205.64108986183527" cy="-164.51287188946822"/>
                <circle r="1.9555" cx="205.64108986183527" cy="-123.38465391710116"/>
                <circle r="1.9555" cx="205.64108986183527" cy="-82.25643594473411"/>
                <circle r="1.9555" cx="205.64108986183527" cy="-41.128217972367054"/>
                <circle r="1.9555" cx="246.76930783420232" cy="-411.28217972367054"/>
                <circle r="1.9555" cx="246.76930783420232" cy="-370.1539617513035"/>
                <circle r="1.9555" cx="246.76930783420232" cy="-329.02574377893643"/>
                <circle r="1.9555" cx="246.76930783420232" cy="-287.8975258065694"/>
                <circle r="1.9555" cx="246.76930783420232" cy="-246.76930783420232"/>
                <circle r="1.9555" cx="246.76930783420232" cy="-205.64108986183527"/>
                <circle r="1.9555" cx="246.76930783420232" cy="-164.51287188946822"/>
                <circle r="1.9555" cx="246.76930783420232" cy="-123.38465391710116"/>
                <circle r="1.9555" cx="246.76930783420232" cy="-82.25643594473411"/>
                <circle r="1.9555" cx="246.76930783420232" cy="-41.128217972367054"/>
                <circle r="1.9555" cx="287.8975258065694" cy="-411.28217972367054"/>
                <circle r="1.9555" cx="287.8975258065694" cy="-370.1539617513035"/>
                <circle r="1.9555" cx="287.8975258065694" cy="-329.02574377893643"/>
                <circle r="1.9555" cx="287.8975258065694" cy="-287.8975258065694"/>
                <circle r="1.9555" cx="287.8975258065694" cy="-246.76930783420232"/>
                <circle r="1.9555" cx="287.8975258065694" cy="-205.64108986183527"/>
                <circle r="1.9555" cx="287.8975258065694" cy="-164.51287188946822"/>
                <circle r="1.9555" cx="287.8975258065694" cy="-123.38465391710116"/>
                <circle r="1.9555" cx="287.8975258065694" cy="-82.25643594473411"/>
                <circle r="1.9555" cx="287.8975258065694" cy="-41.128217972367054"/>
                <circle r="1.9555" cx="329.02574377893643" cy="-411.28217972367054"/>
                <circle r="1.9555" cx="329.02574377893643" cy="-370.1539617513035"/>
                <circle r="1.9555" cx="329.02574377893643" cy="-329.02574377893643"/>
                <circle r="1.9555" cx="329.02574377893643" cy="-287.8975258065694"/>
                <circle r="1.9555" cx="329.02574377893643" cy="-246.76930783420232"/>
                <circle r="1.9555" cx="329.02574377893643" cy="-205.64108986183527"/>
                <circle r="1.9555" cx="329.02574377893643" cy="-164.51287188946822"/>
                <circle r="1.9555" cx="329.02574377893643" cy="-123.38465391710116"/>
                <circle r="1.9555" cx="329.02574377893643" cy="-82.25643594473411"/>
                <circle r="1.9555" cx="329.02574377893643" cy="-41.128217972367054"/>
                <circle r="1.9555" cx="370.1539617513035" cy="-411.28217972367054"/>
                <circle r="1.9555" cx="370.1539617513035" cy="-370.1539617513035"/>
                <circle r="1.9555" cx="370.1539617513035" cy="-329.02574377893643"/>
                <circle r="1.9555" cx="370.1539617513035" cy="-287.8975258065694"/>
                <circle r="1.9555" cx="370.1539617513035" cy="-246.76930783420232"/>
                <circle r="1.9555" cx="370.1539617513035" cy="-205.64108986183527"/>
                <circle r="1.9555" cx="370.1539617513035" cy="-164.51287188946822"/>
                <circle r="1.9555" cx="370.1539617513035" cy="-123.38465391710116"/>
                <circle r="1.9555" cx="370.1539617513035" cy="-82.25643594473411"/>
                <circle r="1.9555" cx="370.1539617513035" cy="-41.128217972367054"/>
                <circle r="1.9555" cx="411.28217972367054" cy="-411.28217972367054"/>
                <circle r="1.9555" cx="411.28217972367054" cy="-370.1539617513035"/>
                <circle r="1.9555" cx="411.28217972367054" cy="-329.02574377893643"/>
                <circle r="1.9555" cx="411.28217972367054" cy="-287.8975258065694"/>
                <circle r="1.9555" cx="411.28217972367054" cy="-246.76930783420232"/>
                <circle r="1.9555" cx="411.28217972367054" cy="-205.64108986183527"/>
                <circle r="1.9555" cx="411.28217972367054" cy="-164.51287188946822"/>
                <circle r="1.9555" cx="411.28217972367054" cy="-123.38465391710116"/>
                <circle r="1.9555" cx="411.28217972367054" cy="-82.25643594473411"/>
                <circle r="1.9555" cx="411.28217972367054" cy="-41.128217972367054"/>
                <circle r="1.9555" cx="0.0" cy="-0.0"/>
                <circle r="1.9555" cx="41.128217972367054" cy="-0.0"/>
                <circle r="1.9555" cx="82.25643594473411" cy="-0.0"/>
                <circle r="1.9555" cx="123.38465391710116" cy="-0.0"/>
                <circle r="1.9555" cx="164.51287188946822" cy="-0.0"/>
                <circle r="1.9555" cx="205.64108986183527" cy="-0.0"/>
                <circle r="1.9555" cx="246.76930783420232" cy="-0.0"/>
                <circle r="1.9555" cx="287.8975258065694" cy="-0.0"/>
                <circle r="1.9555" cx="329.02574377893643" cy="-0.0"/>
                <circle r="1.9555" cx="370.1539617513035" cy="-0.0"/>
                <circle r="1.9555" cx="0.0" cy="-41.128217972367054"/>
                <circle r="1.9555" cx="41.128217972367054" cy="-41.128217972367054"/>
                <circle r="1.9555" cx="82.25643594473411" cy="-41.128217972367054"/>
                <circle r="1.9555" cx="123.38465391710116" cy="-41.128217972367054"/>
                <circle r="1.9555" cx="164.51287188946822" cy="-41.128217972367054"/>
                <circle r="1.9555" cx="205.64108986183527" cy="-41.128217972367054"/>
                <circle r="1.9555" cx="246.76930783420232" cy="-41.128217972367054"/>
                <circle r="1.9555" cx="287.8975258065694" cy="-41.128217972367054"/>
                <circle r="1.9555" cx="329.02574377893643" cy="-41.128217972367054"/>
                <circle r="1.9555" cx="370.1539617513035" cy="-41.128217972367054"/>
                <circle r="1.9555" cx="0.0" cy="-82.25643594473411"/>
                <circle r="1.9555" cx="41.128217972367054" cy="-82.25643594473411"/>
                <circle r="1.9555" cx="82.25643594473411" cy="-82.25643594473411"/>
                <circle r="1.9555" cx="123.38465391710116" cy="-82.25643594473411"/>
                <circle r="1.9555" cx="164.51287188946822" cy="-82.25643594473411"/>
                <circle r="1.9555" cx="205.64108986183527" cy="-82.25643594473411"/>
                <circle r="1.9555" cx="246.76930783420232" cy="-82.25643594473411"/>
                <circle r="1.9555" cx="287.8975258065694" cy="-82.25643594473411"/>
                <circle r="1.9555" cx="329.02574377893643" cy="-82.25643594473411"/>
                <circle r="1.9555" cx="370.1539617513035" cy="-82.25643594473411"/>
                <circle r="1.9555" cx="0.0" cy="-123.38465391710116"/>
                <circle r="1.9555" cx="41.128217972367054" cy="-123.38465391710116"/>
                <circle r="1.9555" cx="82.25643594473411" cy="-123.38465391710116"/>
                <circle r="1.9555" cx="123.38465391710116" cy="-123.38465391710116"/>
                <circle r="1.9555" cx="164.51287188946822" cy="-123.38465391710116"/>
                <circle r="1.9555" cx="205.64108986183527" cy="-123.38465391710116"/>
                <circle r="1.9555" cx="246.76930783420232" cy="-123.38465391710116"/>
                <circle r="1.9555" cx="287.8975258065694" cy="-123.38465391710116"/>
                <circle r="1.9555" cx="329.02574377893643" cy="-123.38465391710116"/>
                <circle r="1.9555" cx="370.1539617513035" cy="-123.38465391710116"/>
                <circle r="1.9555" cx="0.0" cy="-164.51287188946822"/>
                <circle r="1.9555" cx="41.128217972367054" cy="-164.51287188946822"/>
                <circle r="1.9555" cx="82.25643594473411" cy="-164.51287188946822"/>
                <circle r="1.9555" cx="123.38465391710116" cy="-164.51287188946822"/>
                <circle r="1.9555" cx="164.51287188946822" cy="-164.51287188946822"/>
                <circle r="1.9555" cx="205.64108986183527" cy="-164.51287188946822"/>
                <circle r="1.9555" cx="246.76930783420232" cy="-164.51287188946822"/>
                <circle r="1.9555" cx="287.8975258065694" cy="-164.51287188946822"/>
                <circle r="1.9555" cx="329.02574377893643" cy="-164.51287188946822"/>
                <circle r="1.9555" cx="370.1539617513035" cy="-164.51287188946822"/>
                <circle r="1.9555" cx="0.0" cy="-205.64108986183527"/>
                <circle r="1.9555" cx="41.128217972367054" cy="-205.64108986183527"/>
                <circle r="1.9555" cx="82.25643594473411" cy="-205.64108986183527"/>
                <circle r="1.9555" cx="123.38465391710116" cy="-205.64108986183527"/>
                <circle r="1.9555" cx="164.51287188946822" cy="-205.64108986183527"/>
                <circle r="1.9555" cx="205.64108986183527" cy="-205.64108986183527"/>
                <circle r="1.9555" cx="246.76930783420232" cy="-205.64108986183527"/>
                <circle r="1.9555" cx="287.8975258065694" cy="-205.64108986183527"/>
                <circle r="1.9555" cx="329.02574377893643" cy="-205.64108986183527"/>
                <circle r="1.9555" cx="370.1539617513035" cy="-205.64108986183527"/>
                <circle r="1.9555" cx="0.0" cy="-246.76930783420232"/>
                <circle r="1.9555" cx="41.128217972367054" cy="-246.76930783420232"/>
                <circle r="1.9555" cx="82.25643594473411" cy="-246.76930783420232"/>
                <circle r="1.9555" cx="123.38465391710116" cy="-246.76930783420232"/>
                <circle r="1.9555" cx="164.51287188946822" cy="-246.76930783420232"/>
                <circle r="1.9555" cx="205.64108986183527" cy="-246.76930783420232"/>
                <circle r="1.9555" cx="246.76930783420232" cy="-246.76930783420232"/>
                <circle r="1.9555" cx="287.8975258065694" cy="-246.76930783420232"/>
                <circle r="1.9555" cx="329.02574377893643" cy="-246.76930783420232"/>
                <circle r="1.9555" cx="370.1539617513035" cy="-246.76930783420232"/>
                <circle r="1.9555" cx="0.0" cy="-287.8975258065694"/>
                <circle r="1.9555" cx="41.128217972367054" cy="-287.8975258065694"/>
                <circle r="1.9555" cx="82.25643594473411" cy="-287.8975258065694"/>
                <circle r="1.9555" cx="123.38465391710116" cy="-287.8975258065694"/>
                <circle r="1.9555" cx="164.51287188946822" cy="-287.8975258065694"/>
                <circle r="1.9555" cx="205.64108986183527" cy="-287.8975258065694"/>
                <circle r="1.9555" cx="246.76930783420232" cy="-287.8975258065694"/>
                <circle r="1.9555" cx="287.8975258065694" cy="-287.8975258065694"/>
                <circle r="1.9555" cx="329.02574377893643" cy="-287.8975258065694"/>
                <circle r="1.9555" cx="370.1539617513035" cy="-287.8975258065694"/>
                <circle r="1.9555" cx="0.0" cy="-329.02574377893643"/>
                <circle r="1.9555" cx="41.128217972367054" cy="-329.02574377893643"/>
                <circle r="1.9555" cx="82.25643594473411" cy="-329.02574377893643"/>
                <circle r="1.9555" cx="123.38465391710116" cy="-329.02574377893643"/>
                <circle r="1.9555" cx="164.51287188946822" cy="-329.02574377893643"/>
                <circle r="1.9555" cx="205.64108986183527" cy="-329.02574377893643"/>
                <circle r="1.9555" cx="246.76930783420232" cy="-329.02574377893643"/>
                <circle r="1.9555" cx="287.8975258065694" cy="-329.02574377893643"/>
                <circle r="1.9555" cx="329.02574377893643" cy="-329.02574377893643"/>
                <circle r="1.9555" cx="370.1539617513035" cy="-329.02574377893643"/>
                <circle r="1.9555" cx="0.0" cy="-370.1539617513035"/>
                <circle r="1.9555" cx="41.128217972367054" cy="-370.1539617513035"/>
                <circle r="1.9555" cx="82.25643594473411" cy="-370.1539617513035"/>
                <circle r="1.9555" cx="123.38465391710116" cy="-370.1539617513035"/>
                <circle r="1.9555" cx="164.51287188946822" cy="-370.1539617513035"/>
                <circle r="1.9555" cx="205.64108986183527" cy="-370.1539617513035"/>
                <circle r="1.9555" cx="246.76930783420232" cy="-370.1539617513035"/>
                <circle r="1.9555" cx="287.8975258065694" cy="-370.1539617513035"/>
                <circle r="1.9555" cx="329.02574377893643" cy="-370.1539617513035"/>
                <circle r="1.9555" cx="370.1539617513035" cy="-370.1539617513035"/>
                <circle r="1.9555" cx="0.0" cy="-411.28217972367054"/>
                <circle r="1.9555" cx="41.128217972367054" cy="-411.28217972367054"/>
                <circle r="1.9555" cx="82.25643594473411" cy="-411.28217972367054"/>
                <circle r="1.9555" cx="123.38465391710116" cy="-411.28217972367054"/>
                <circle r="1.9555" cx="164.51287188946822" cy="-411.28217972367054"/>
                <circle r="1.9555" cx="205.64108986183527" cy="-411.28217972367054"/>
                <circle r="1.9555" cx="246.76930783420232" cy="-411.28217972367054"/>
                <circle r="1.9555" cx="287.8975258065694" cy="-411.28217972367054"/>
                <circle r="1.9555" cx="329.02574377893643" cy="-411.28217972367054"/>
                <circle r="1.9555" cx="370.1539617513035" cy="-411.28217972367054"/>
                <circle r="1.9555" cx="411.28217972367054" cy="0.0"/>
            </g>
            <g font-size="10" stroke="black" latexdraw:type="text">
                <text x="4" y="11">0</text>
                <text x="45" y="11">1</text>
                <text x="86" y="11">2</text>
                <text x="127" y="11">3</text>
                <text x="168" y="11">4</text>
                <text x="210" y="11">5</text>
                <text x="251" y="11">6</text>
                <text x="292" y="11">7</text>
                <text x="333" y="11">8</text>
                <text x="374" y="11">9</text>
                <text x="415" y="11">10</text>
                <text x="-16" y="-415">10</text>
                <text x="-10" y="-374">9</text>
                <text x="-10" y="-333">8</text>
                <text x="-10" y="-292">7</text>
                <text x="-10" y="-251">6</text>
                <text x="-10" y="-210">5</text>
                <text x="-10" y="-168">4</text>
                <text x="-10" y="-127">3</text>
                <text x="-10" y="-86">2</text>
                <text x="-10" y="-45">1</text>
                <text x="-10" y="-4">0</text>
            </g>
        </g>
        <g latexdraw:type="rectangle" id="id836092335">
            <rect x="161.0" y="126.0" width="328.0" height="333.0"
                latexdraw:borderPos="outer" stroke-width="2.0"
                stroke="black" fill="none"/>
        </g>
        <g latexdraw:type="text" id="id710398416" fill="black" latexdraw:position="bl">
            <text x="415.0" y="485.0">$\mathcal R_1^{\mbox{max}}=9$</text>
        </g>
        <g latexdraw:type="text" id="id2032901157" fill="black"
            latexdraw:position="bl" transform="rotate(270.7043306141918) translate(-613.0598942758481 -299.3571251004299)">
            <text x="155.0" y="460.0">$\mathcal R_2^{\mbox{min}}=1$</text>
        </g>
        <g latexdraw:type="text" id="id394389442" fill="black"
            latexdraw:position="bl" transform="rotate(270.7043306141918) translate(-363.0176983154546 -42.49211043553893)">
            <text x="160.0" y="205.0">$\mathcal R_2^{\mbox{max}}=9$</text>
        </g>
        <g latexdraw:type="square" id="id845478124">
            <rect x="181.0" y="346.0" width="18.0" height="18.0"
                latexdraw:borderPos="outer" stroke-width="2.0"
                stroke="black" fill="none"/>
        </g>
        <g latexdraw:type="square" id="id909169383">
            <rect x="211.0" y="296.0" width="18.0" height="18.0"
                latexdraw:borderPos="outer" stroke-width="2.0"
                stroke="black" fill="none"/>
        </g>
        <g latexdraw:type="square" id="id1070831544">
            <rect x="221.0" y="396.0" width="18.0" height="18.0"
                latexdraw:borderPos="outer" stroke-width="2.0"
                stroke="black" fill="none"/>
        </g>
        <g latexdraw:type="square" id="id344758932">
            <rect x="231.0" y="341.0" width="18.0" height="18.0"
                latexdraw:borderPos="outer" stroke-width="2.0"
                stroke="black" fill="none"/>
        </g>
        <g latexdraw:type="square" id="id1136918265">
            <rect x="261.0" y="371.0" width="18.0" height="18.0"
                latexdraw:borderPos="outer" stroke-width="2.0"
                stroke="black" fill="none"/>
        </g>
        <g latexdraw:type="square" id="id1613209779">
            <rect x="256.0" y="411.0" width="18.0" height="18.0"
                latexdraw:borderPos="outer" stroke-width="2.0"
                stroke="black" fill="none"/>
        </g>
        <g latexdraw:type="square" id="id853961930">
            <rect x="261.0" y="331.0" width="18.0" height="18.0"
                latexdraw:borderPos="outer" stroke-width="2.0"
                stroke="black" fill="none"/>
        </g>
        <g latexdraw:type="square" id="id1989268074">
            <rect x="271.0" y="271.0" width="18.0" height="18.0"
                latexdraw:borderPos="outer" stroke-width="2.0"
                stroke="black" fill="none"/>
        </g>
        <g latexdraw:type="square" id="id243076011">
            <rect x="296.0" y="311.0" width="18.0" height="18.0"
                latexdraw:borderPos="outer" stroke-width="2.0"
                stroke="black" fill="none"/>
        </g>
        <g latexdraw:type="square" id="id2092916944">
            <rect x="401.0" y="176.0" width="18.0" height="18.0"
                latexdraw:borderPos="outer" stroke-width="2.0"
                stroke="black" fill="none"/>
        </g>
        <g latexdraw:type="square" id="id1357313448">
            <rect x="416.0" y="211.0" width="18.0" height="18.0"
                latexdraw:borderPos="outer" stroke-width="2.0"
                stroke="black" fill="none"/>
        </g>
        <g latexdraw:type="square" id="id99673218">
            <rect x="231.0" y="231.0" width="18.0" height="18.0"
                latexdraw:borderPos="outer" stroke-width="2.0"
                stroke="black" fill="none"/>
        </g>
        <g latexdraw:type="square" id="id367222648">
            <rect x="431.0" y="166.0" width="18.0" height="18.0"
                latexdraw:borderPos="outer" stroke-width="2.0"
                stroke="black" fill="none"/>
        </g>
        <g latexdraw:type="joinedLines" id="id744114781">
            <polyline points="367.0,125.0 367.0,460.0 "
                stroke-width="2.0" stroke="black"
                stroke-dasharray="8.819444444444445, 5.291666666666667" latexdraw:rotationAngle="0.0"/>
        </g>
        <g latexdraw:type="text" id="id852864130" fill="black" latexdraw:position="bl">
            <text x="400.0" y="320.0">$\mathcal R_R(1,6)$</text>
        </g>
        <g latexdraw:type="text" id="id1488582159" fill="black" latexdraw:position="bl">
            <text x="220.0" y="185.0">$\mathcal R_L(1,6)$</text>
        </g>
        <g latexdraw:type="circle" id="id1222365633">
            <circle cx="117.5" cy="557.5" r="3.5"
                latexdraw:borderPos="outer" stroke-width="2.0"
                stroke="black" fill="black"/>
        </g>
        <g latexdraw:type="text" id="id1741257748" fill="black" latexdraw:position="bl">
            <text x="145.0" y="565.0">points representing empty space</text>
        </g>
        <g latexdraw:type="square" id="id1251614994">
            <rect x="111.0" y="581.0" width="18.0" height="18.0"
                latexdraw:borderPos="outer" stroke-width="2.0"
                stroke="black" fill="none"/>
        </g>
        <g latexdraw:type="text" id="id598400961" fill="black" latexdraw:position="bl">
            <text x="145.0" y="600.0">points representing training samples</text>
        </g>
    </g>
    <defs/>
    <metadata>
        <latexdraw:metadata>
            <latexdraw:latexIncludes/>
            <latexdraw:displayXScale>true</latexdraw:displayXScale>
            <latexdraw:displayYScale>true</latexdraw:displayYScale>
            <latexdraw:unit>CM</latexdraw:unit>
            <latexdraw:zoom>1.0</latexdraw:zoom>
            <latexdraw:magneticGridStyle>CUSTOMISED</latexdraw:magneticGridStyle>
            <latexdraw:gridGap>5</latexdraw:gridGap>
            <latexdraw:magneticGrid>true</latexdraw:magneticGrid>
            <latexdraw:version>3.3.2</latexdraw:version>
            <latexdraw:size>
                <latexdraw:width>1098</latexdraw:width>
                <latexdraw:height>670</latexdraw:height>
            </latexdraw:size>
            <latexdraw:position>
                <latexdraw:x>295.0</latexdraw:x>
                <latexdraw:y>77.0</latexdraw:y>
            </latexdraw:position>
        </latexdraw:metadata>
    </metadata>
</svg>
